<?xml version="1.0" encoding="UTF-8"?>
<!DOCTYPE svg PUBLIC "-//W3C//DTD SVG 1.1//EN" "http://www.w3.org/Graphics/SVG/1.1/DTD/svg11.dtd">
<!-- Creator: CorelDRAW -->
<svg xmlns="http://www.w3.org/2000/svg" xml:space="preserve" width="0.333331in" height="0.333331in" version="1.1" style="shape-rendering:geometricPrecision; text-rendering:geometricPrecision; image-rendering:optimizeQuality; fill-rule:evenodd; clip-rule:evenodd"
viewBox="0 0 333.33 333.33"
 xmlns:xlink="http://www.w3.org/1999/xlink"
 xmlns:xodm="http://www.corel.com/coreldraw/odm/2003">
 <defs>
  <style type="text/css">
   <![CDATA[
    .fil8 {fill:#00DBCD}
    .fil4 {fill:#464655}
    .fil3 {fill:#468CBE}
    .fil2 {fill:#63AEDA}
    .fil1 {fill:#707384}
    .fil6 {fill:#A0D778}
    .fil0 {fill:#EEEEEE}
    .fil7 {fill:#FDA055}
    .fil5 {fill:#FE6569}
    .fil9 {fill:#FEDC69}
    .fil10 {fill:#FEFEFF}
    .fil11 {fill:#2B2A29;fill-rule:nonzero}
   ]]>
  </style>
 </defs>
 <g id="Layer_x0020_1">
  <metadata id="CorelCorpID_0Corel-Layer"/>
  <rect class="fil0" x="16.67" y="16.67" width="300" height="300" rx="15.38" ry="16.67"/>
  <g id="_2817187854368">
   <path class="fil1" d="M178.2 26.91l-150 146.07c-5.57,5.43 -6.39,13.35 -1.88,17.99l69.81 71.69c4.57,4.69 12.54,3.95 18.04,-1.4l150 -146.07c5.57,-5.43 6.39,-13.35 1.88,-17.99l-69.81 -71.68c-2.28,-2.35 -6.45,-3.34 -8.8,-3.1 -3.07,0.32 -6.07,1.42 -9.23,4.5z"/>
   <path class="fil2" d="M82.78 131.51l22.94 23.52c4.02,-2.91 8.22,0.93 6.12,5.15 0.02,1.85 0.04,1.39 1.85,3.22 1.1,1.11 2.2,2.21 3.3,3.34 4.77,-2.93 8.82,1.24 5.77,5.92l5.2 5.34c-1.55,2.17 -0.15,-0.03 -0.31,1.48 4.75,-5.28 10.11,0.8 6.31,4.94l23.11 23.37 87.74 -85.44 -74.23 -76.38 -87.8 85.54z"/>
   <path class="fil3" d="M105.72 155.03l-22.94 -23.52 -35.23 34.31 0.88 1.04 74.98 76.99 -1.57 -1.75 35.23 -34.31 -23.11 -23.37c-3.84,2.94 -7.89,-0.24 -6.31,-4.94 0.16,-1.51 -1.23,0.69 0.31,-1.48l-5.2 -5.34c-4.78,3.27 -9.15,-1.26 -5.77,-5.92 -1.09,-1.13 -2.2,-2.22 -3.3,-3.34 -1.81,-1.83 -1.83,-1.37 -1.85,-3.22 -4.54,4.86 -10.02,-0.74 -6.12,-5.15z"/>
   <path class="fil4" d="M166.47 112.43c-3.88,-2.55 -5.35,-0.12 -8.98,3.43 -10.65,10.41 -12.31,9.76 -4.84,17.4 2,2.04 6.6,7.27 8.65,8.59 3.45,2.22 5.6,-0.71 8.76,-3.8 10.66,-10.42 12.26,-9.74 4.8,-17.36 -2.3,-2.35 -5.94,-6.66 -8.38,-8.27z"/>
   <path class="fil5" d="M183.37 90.65c-15.69,15.28 -15.51,11.29 -0.15,27.06 5.08,5.22 8.67,-0.93 17.36,-9.39 5.39,-5.24 -0.25,-8.26 -9.45,-17.72 -2.83,-2.91 -4.95,-2.7 -7.76,0.04z"/>
   <path class="fil6" d="M143.8 89.03c-3.76,-2.72 -5.44,-0.13 -8.75,3.11 -10.71,10.49 -12.88,9.85 -5.35,17.56 10.08,10.3 9.77,12.5 17.19,5.23 2.19,-2.14 7.28,-6.58 8.81,-8.75 2.39,-3.37 -0.61,-5.8 -3.46,-8.72 -2.42,-2.47 -5.91,-6.61 -8.44,-8.43z"/>
   <path class="fil7" d="M189.39 135.89c-3.77,-2.63 -5.46,-0.12 -8.74,3.09 -10.46,10.25 -12.87,9.87 -5.39,17.52 10.33,10.56 9.79,12.56 17.24,5.27 10.71,-10.48 12.83,-9.82 5.3,-17.52 -2.38,-2.44 -5.91,-6.62 -8.41,-8.37z"/>
   <path class="fil8" d="M75.64 149.99c-15.86,15.44 -15.74,11.06 0,27.22 2.61,2.69 4.88,2.36 7.53,-0.23 15.72,-15.3 15.68,-11.17 0.39,-26.88 -3.04,-3.11 -4.8,-3.15 -7.92,-0.11z"/>
   <path class="fil9" d="M160.59 67.26c-15.87,15.45 -15.74,11.06 0.04,27.26 2.57,2.64 4.84,2.31 7.49,-0.27 15.72,-15.3 15.69,-11.17 0.39,-26.87 -3.03,-3.11 -4.8,-3.16 -7.92,-0.12z"/>
   <path class="fil2" d="M104 171.69c-3.72,-1.35 -5.35,1.46 -8.57,4.59 -10.87,10.61 -11.46,9.5 -3.63,17.53 9.95,10.21 9.1,11.61 17.2,3.71 10.87,-10.61 11.57,-9.43 3.65,-17.56 -1.98,-2.03 -6.5,-7.5 -8.65,-8.28z"/>
   <path class="fil9" d="M142.75 134.86c-3.28,-2.07 -5.76,0.94 -8.5,3.61 -10.86,10.63 -12.57,9.79 -4.99,17.55 10.31,10.56 9.64,12.39 17.22,4.97 10.39,-10.15 12.53,-9.71 4.93,-17.49 -1.94,-1.98 -6.83,-7.5 -8.67,-8.65z"/>
   <path class="fil8" d="M211.87 112.35c-3.43,-1.54 -5.61,1.69 -8.65,4.65 -1.93,1.88 -7.57,6.82 -8.46,8.72 -1.52,3.26 1.85,5.74 4.63,8.58 10.64,10.91 9.41,11.6 17.34,3.87 10.91,-10.63 11.6,-9.4 3.82,-17.37 -1.96,-2 -6.64,-7.54 -8.68,-8.45z"/>
   <path class="fil10" d="M165.19 158.22c-3.9,-1.7 -5.33,1 -8.77,4.35 -11.02,10.74 -11.54,9.5 -3.88,17.35 10.69,10.96 9.41,11.61 17.4,3.82 10.47,-10.21 11.78,-9.13 3.79,-17.34 -1.92,-1.97 -6.49,-7.3 -8.54,-8.19z"/>
   <path class="fil5" d="M126.91 195.08c-3.42,-1.54 -5.62,1.69 -8.66,4.65 -10.46,10.2 -11.67,9.27 -3.83,17.3 10.64,10.91 9.41,11.61 17.34,3.87 10.92,-10.64 11.59,-9.41 3.82,-17.37 -1.96,-2.01 -6.63,-7.54 -8.67,-8.46z"/>
   <path class="fil3" d="M119.83 111.41c-3.64,-2.11 -5.49,0.9 -8.68,4.01 -10.99,10.72 -12.1,9.58 -4.5,17.37 10.44,10.7 9.45,12.13 17.33,4.44 10.26,-10.02 12.11,-9.46 4.48,-17.27 -1.89,-1.94 -6.81,-7.49 -8.63,-8.55z"/>
   <path class="fil4" d="M213.56 60.97c-2.52,-1.7 -5.74,-1.48 -6.65,2.02 -0.72,2.78 2.05,4.91 4.4,7.31 3.43,3.5 10.86,12.03 14.27,14.5 2.19,1.59 5.79,0.75 6.44,-2.48 0.5,-2.5 -2.2,-4.87 -4.44,-7.17 -3.08,-3.15 -11.19,-12.27 -14.02,-14.19z"/>
   <path class="fil4" d="M77.26 208.51c-9.35,-5.61 -17.92,8.07 -8.46,13.94 8.97,5.56 17.63,-8.45 8.46,-13.94z"/>
   <path class="fil9" d="M145.69 96.98c-9.65,-6.42 -18.17,7.62 -9.22,13.44 8.91,5.79 17.88,-7.67 9.22,-13.44z"/>
   <path class="fil9" d="M106.15 179.76c-9.75,-5.09 -17.17,8.94 -7.79,14.35 3.21,1.85 8.39,1.07 10.91,-3.02 2.06,-3.35 1.55,-8.9 -3.11,-11.33z"/>
   <path class="fil5" d="M213.81 120.51c-10.19,-5.22 -16.83,9.44 -7.56,14.38 3.38,1.8 8.61,0.98 11.11,-3.63 1.82,-3.35 0.86,-8.49 -3.55,-10.75z"/>
   <path class="fil3" d="M163.25 120.72c-3.17,-2.05 -6.91,0.43 -6.4,3.85 0.31,2.12 5.25,7.24 7.51,8.7 3,1.94 6.78,-0.43 6.29,-3.94 -0.3,-2.16 -5.31,-7.26 -7.4,-8.61z"/>
   <path class="fil10" d="M112.78 127.47c3.13,3.21 6.66,8.11 10.29,4.81 3.82,-3.48 -1.13,-7.26 -4.36,-10.58 -5.36,-5.5 -11.36,0.2 -5.93,5.77z"/>
   <path class="fil5" d="M158.35 174.26c3.31,3.4 6.76,8.24 10.34,4.89 3.79,-3.54 -1.14,-7.29 -4.42,-10.66 -5.33,-5.48 -11.13,0.42 -5.92,5.77z"/>
   <path class="fil4" d="M200.57 48.52c-1.98,-0.68 -3.83,-0.24 -4.85,2.16 -0.74,1.74 -0.38,4.33 2.39,5.42 4.57,1.78 8.24,-5.59 2.46,-7.58z"/>
   <path class="fil10" d="M116.99 166.74c-3.39,4.65 0.98,9.19 5.77,5.92 3.06,-4.67 -1,-8.85 -5.77,-5.92z"/>
   <path class="fil10" d="M127.64 179.48c-1.58,4.7 2.47,7.88 6.31,4.94 3.8,-4.13 -1.57,-10.22 -6.31,-4.94z"/>
   <path class="fil4" d="M105.72 155.03c-3.91,4.41 1.57,10.02 6.12,5.15 2.11,-4.22 -2.09,-8.06 -6.12,-5.15z"/>
  </g>
  <path class="fil11" d="M175.29 263.56c0.85,0 1.41,0.61 1.7,1.82 0.29,1.21 0.44,3.06 0.44,5.54 0,2.54 -0.16,4.39 -0.48,5.58 -0.31,1.19 -0.87,1.78 -1.66,1.78 -1.58,0 -3.09,-0.29 -4.51,-0.87 -0.74,5.01 -2.27,9.31 -4.59,12.9 -5.75,1.37 -11.03,2.06 -15.83,2.06 -6.65,0 -11.86,-1.43 -15.63,-4.27 -3.77,-2.85 -5.66,-7.28 -5.66,-13.3 0,-5.96 1.64,-13.06 4.91,-21.29l10.92 3.56c-1.9,5.54 -2.85,9.76 -2.85,12.67 0,2.64 0.75,4.63 2.26,5.98 1.5,1.34 3.92,2.02 7.24,2.02 2.27,0 4.8,-0.29 7.6,-0.87 0,-5.12 -0.26,-11.82 -0.79,-20.1 -0.53,-8.28 -1.13,-15.8 -1.82,-22.56l12.74 -0.71c0.43,5.33 0.95,15.14 1.59,29.44 1.42,0.42 2.9,0.63 4.43,0.63zm22.56 -12.35c1,3.17 1.5,6.59 1.5,10.29 0,2.8 -0.29,5.49 -0.87,8.07 -0.58,2.58 -1.4,4.72 -2.45,6.41 -2.22,0.63 -5.15,1.17 -8.78,1.62 -3.64,0.45 -7.63,0.67 -11.95,0.67 -0.79,0 -1.35,-0.59 -1.66,-1.78 -0.32,-1.19 -0.48,-3.05 -0.48,-5.58 0,-2.48 0.15,-4.33 0.44,-5.54 0.29,-1.21 0.86,-1.82 1.7,-1.82 5.65,0 9.81,-0.32 12.5,-0.95 -0.42,-1.8 -0.94,-3.56 -1.54,-5.3 -0.61,-1.74 -0.96,-2.8 -1.07,-3.17l12.66 -2.93zm-0.24 37.59c0.11,0.79 -0.48,2.08 -1.74,3.88 -1.27,1.79 -2.35,3.01 -3.24,3.64 -1,-0.42 -2.27,-1.15 -3.8,-2.17 -1.53,-1.03 -2.67,-1.97 -3.41,-2.81 -0.53,0.95 -1.21,1.93 -2.06,2.93 -0.85,1 -1.53,1.69 -2.06,2.06 -1.06,-0.47 -2.4,-1.28 -4.04,-2.41 -1.64,-1.13 -2.8,-2.09 -3.48,-2.89 0.31,-1.11 1.11,-2.59 2.37,-4.43 1.27,-1.85 2.32,-2.77 3.17,-2.77 0.85,0 2.11,0.59 3.8,1.78 1.69,1.19 2.72,2.17 3.09,2.96 0.74,-1.32 1.5,-2.44 2.3,-3.36 0.79,-0.93 1.5,-1.39 2.14,-1.39 0.84,0 2.18,0.65 4,1.94 1.82,1.29 2.81,2.31 2.97,3.05zm40.36 -37.59c0.95,3.01 1.43,6.46 1.43,10.37 0,2.85 -0.28,5.54 -0.83,8.07 -0.56,2.53 -1.36,4.64 -2.41,6.33 -2.11,0.74 -4.54,1.31 -7.28,1.7 -2.74,0.4 -5.57,0.59 -8.47,0.59 -2.8,0 -5.47,-0.2 -8.03,-0.59 -2.56,-0.39 -4.76,-0.96 -6.61,-1.7 -0.47,-1.9 -0.87,-10.47 -1.19,-25.72l-0.48 -16.07 12.74 -0.71c0.47,7.86 0.71,15.06 0.71,21.61 0,2 -0.06,4.7 -0.16,8.07 1.85,0.26 3.59,0.4 5.22,0.4 2.11,0 3.91,-0.21 5.38,-0.63 -0.47,-1.95 -1.4,-4.88 -2.77,-8.78l12.74 -2.93zm-14.24 45.98c-1.11,-0.43 -2.56,-1.26 -4.35,-2.5 -1.8,-1.24 -3.04,-2.31 -3.72,-3.2 0.16,-0.69 0.57,-1.62 1.23,-2.81 0.66,-1.19 1.41,-2.27 2.26,-3.25 0.84,-0.98 1.58,-1.52 2.22,-1.62 0.58,-0.11 1.46,0.16 2.65,0.79 1.19,0.63 2.3,1.41 3.32,2.33 1.03,0.93 1.6,1.65 1.7,2.18 0.21,0.79 -0.39,2.18 -1.78,4.16 -1.4,1.98 -2.57,3.28 -3.52,3.92zm49.23 -33.64c0.84,0 1.41,0.61 1.7,1.82 0.29,1.21 0.43,3.06 0.43,5.54 0,2.54 -0.16,4.39 -0.47,5.58 -0.32,1.19 -0.87,1.78 -1.66,1.78 -1.95,0 -4.01,-0.16 -6.17,-0.48 -1.32,3.85 -3.04,7.54 -5.15,11.04 -2.11,3.51 -4.22,6.53 -6.33,9.06 -1.69,-0.63 -3.79,-1.78 -6.3,-3.44 -2.5,-1.66 -4.39,-3.2 -5.66,-4.63 0.16,-0.21 0.36,-0.42 0.59,-0.63 0.24,-0.21 0.46,-0.45 0.67,-0.71 4.43,-4.59 7.76,-8.55 9.97,-11.87 -3.11,-0.69 -5.72,-1.99 -7.84,-3.92 -2.11,-1.93 -3.17,-4.34 -3.17,-7.24 0,-2.58 0.71,-5.24 2.14,-7.95 1.43,-2.72 3.23,-4.96 5.42,-6.73 2.19,-1.77 4.37,-2.65 6.53,-2.65 2.32,0 4.33,0.74 6.02,2.22 1.69,1.48 2.99,3.37 3.92,5.7 0.92,2.32 1.46,4.78 1.62,7.36 1.69,0.1 2.93,0.16 3.72,0.16zm-21.21 -1.11c0.31,0.58 1.66,1.03 4.04,1.35 1.27,0.16 2.59,0.24 3.96,0.24 1.16,0 2.01,-0.02 2.54,-0.08 -0.9,-1.11 -2.02,-2.02 -3.37,-2.73 -1.34,-0.71 -2.65,-1.07 -3.92,-1.07 -0.95,0 -1.73,0.2 -2.33,0.59 -0.61,0.4 -0.91,0.96 -0.91,1.7zm46.7 -14.09c2.32,0 4.38,0.67 6.17,2.02 1.8,1.34 3.18,3.22 4.16,5.62 0.98,2.4 1.46,5.13 1.46,8.19 0,4.17 -0.9,7.64 -2.69,10.41 -1.8,2.77 -4.3,4.16 -7.52,4.16 -2.11,0 -4.31,-0.58 -6.61,-1.74 -2.3,-1.16 -4.47,-2.69 -6.53,-4.59 -1.74,1.9 -3.78,3.35 -6.13,4.35 -2.35,1 -4.94,1.5 -7.8,1.5 -0.79,0 -1.35,-0.59 -1.66,-1.78 -0.32,-1.19 -0.48,-3.05 -0.48,-5.58 0,-2.48 0.15,-4.33 0.44,-5.54 0.29,-1.21 0.86,-1.82 1.7,-1.82 2.37,0 4.44,-0.38 6.21,-1.15 1.77,-0.76 3.24,-1.7 4.43,-2.81 1.19,-1.11 2.57,-2.59 4.15,-4.43 1.9,-2.27 3.6,-3.97 5.11,-5.11 1.5,-1.13 3.36,-1.7 5.58,-1.7zm0.95 16.78c0.95,0 1.85,-0.09 2.69,-0.28 0.84,-0.19 1.37,-0.41 1.58,-0.67 -0.05,-0.74 -0.57,-1.37 -1.54,-1.9 -0.98,-0.53 -2.31,-0.79 -4,-0.79 -2.37,0 -4.48,0.56 -6.33,1.66 0.95,0.69 2.11,1.19 3.48,1.5 1.37,0.32 2.74,0.48 4.11,0.48z"/>
 </g>
</svg>
