<?xml version="1.0" encoding="UTF-8"?>
<!DOCTYPE svg PUBLIC "-//W3C//DTD SVG 1.1//EN" "http://www.w3.org/Graphics/SVG/1.1/DTD/svg11.dtd">
<!-- Creator: CorelDRAW -->
<svg xmlns="http://www.w3.org/2000/svg" xml:space="preserve" width="70px" height="70px" version="1.1" style="shape-rendering:geometricPrecision; text-rendering:geometricPrecision; image-rendering:optimizeQuality; fill-rule:evenodd; clip-rule:evenodd"
viewBox="0 0 70 70"
 xmlns:xlink="http://www.w3.org/1999/xlink"
 xmlns:xodm="http://www.corel.com/coreldraw/odm/2003">
 <defs>
  <style type="text/css">
   <![CDATA[
    .str1 {stroke:white;stroke-miterlimit:2.61313}
    .str0 {stroke:white;stroke-width:2;stroke-linecap:round;stroke-linejoin:round;stroke-miterlimit:2.61313}
    .fil1 {fill:none}
    .fil0 {fill:white;fill-rule:nonzero}
   ]]>
  </style>
 </defs>
 <g id="Layer_x0020_1">
  <metadata id="CorelCorpID_0Corel-Layer"/>
  <g id="_1384361450256">
   <path class="fil0" d="M65.94 47.06l-0.97 11.77c-0.05,0.59 -0.2,0.88 -0.47,0.88 -0.27,0 -0.44,-0.37 -0.53,-1.11l-1.16 -9.85 2.74 -1.98c0.12,-0.09 0.22,-0.13 0.28,-0.13 0.1,0 0.13,0.14 0.11,0.42z"/>
   <path class="fil0" d="M62.82 56.68c0,2.35 -0.76,4.35 -2.28,5.99 -0.23,0.24 -0.41,0.4 -0.54,0.47 -0.13,0.07 -0.35,0.11 -0.66,0.11 -0.64,0.02 -1.41,-0.02 -2.3,-0.12 -1.28,-0.14 -1.92,-0.35 -1.92,-0.64 0,-0.23 0.28,-0.46 0.82,-0.68 1.1,-0.43 2.03,-0.86 2.79,-1.3 1.98,-1.14 2.97,-2.11 2.97,-2.93 0,-0.68 -0.92,-1.69 -2.75,-3.01l1.47 -2.23c0.1,-0.15 0.2,-0.23 0.3,-0.23 0.09,0 0.22,0.08 0.39,0.23 0.41,0.36 0.77,0.88 1.1,1.59 0.4,0.88 0.61,1.8 0.61,2.75z"/>
   <path class="fil0" d="M56.67 55.67c0,1.01 -0.22,1.9 -0.65,2.67 -0.49,0.87 -1.16,1.3 -2.01,1.3 -0.82,0 -1.41,-0.42 -1.76,-1.26 -0.15,0.36 -0.4,0.66 -0.75,0.9 -0.35,0.24 -0.72,0.36 -1.1,0.36 -0.82,0 -1.45,-0.39 -1.91,-1.18 -0.12,0.31 -0.34,0.58 -0.67,0.82 -0.33,0.24 -0.65,0.36 -0.98,0.36l-1.04 0 0 -3.07 1.05 0c0.51,0 0.87,-0.17 1.07,-0.51 0.08,-0.14 0.18,-0.45 0.28,-0.95 0.08,-0.34 0.22,-0.51 0.42,-0.51 0.19,0 0.33,0.17 0.38,0.51 0.09,0.51 0.17,0.83 0.25,0.95 0.2,0.34 0.58,0.51 1.13,0.51 0.48,0 0.82,-0.17 1.02,-0.52 0.08,-0.12 0.17,-0.44 0.27,-0.95 0.07,-0.34 0.21,-0.51 0.4,-0.51 0.22,0 0.36,0.17 0.41,0.51 0.07,0.46 0.19,0.78 0.34,0.95 0.29,0.35 0.84,0.52 1.64,0.52 0.64,0 0.96,-0.26 0.96,-0.77 0,-0.4 -0.31,-0.97 -0.94,-1.71l1.12 -1.55c0.08,-0.1 0.15,-0.16 0.23,-0.16 0.06,0 0.12,0.06 0.17,0.18 0.45,1.02 0.67,2.05 0.67,3.11z"/>
   <polygon class="fil0" points="44.98,56.54 46.52,56.54 46.58,56.63 46.59,59.55 46.54,59.63 45,59.63 44.94,59.55 44.93,56.63 "/>
   <path class="fil0" d="M45.38 59.63l-0.99 0c-1.8,0 -2.69,-1.44 -2.69,-4.32 0,-2.3 -0.08,-4.72 -0.25,-7.26l1.84 -1.3c0.23,-0.16 0.38,-0.24 0.45,-0.24 0.1,0 0.15,0.17 0.15,0.51l-0.01 8.08c0,0.96 0.4,1.44 1.21,1.44l0.29 0 0 3.09z"/>
   <path class="fil0" d="M41.2 49.34c0.06,0.1 0.09,0.19 0.09,0.27 0,0.14 -0.12,0.21 -0.37,0.21 -0.16,0 -0.39,-0.03 -0.69,-0.09l-0.46 10.29c-0.07,1.37 -0.48,2.49 -1.26,3.39 -1.16,1.32 -3.01,1.98 -5.57,1.98 -1.46,0 -2.67,-0.35 -3.62,-1.05 -1.07,-0.79 -1.61,-1.89 -1.61,-3.3 0,-0.44 0.09,-1.05 0.28,-1.81 0.18,-0.76 0.37,-1.33 0.57,-1.7 0.14,-0.25 0.3,-0.38 0.48,-0.38 0.18,0 0.26,0.11 0.26,0.33 0,0.07 -0.01,0.14 -0.04,0.23 -0.17,0.56 -0.26,1.02 -0.26,1.37 0,2.16 1.46,3.24 4.37,3.24 1.49,0 2.77,-0.27 3.84,-0.82 0.88,-0.45 1.31,-0.84 1.31,-1.19 0,-3.36 -0.34,-7.26 -1.02,-11.69l1.85 -2.06c0.1,-0.1 0.18,-0.15 0.26,-0.15 0.11,0 0.21,0.08 0.29,0.24l1.3 2.69z"/>
   <path class="fil0" d="M36.43 52.07c0,1.02 -0.21,1.91 -0.65,2.67 -0.49,0.87 -1.16,1.31 -2.01,1.31 -0.82,0 -1.41,-0.42 -1.76,-1.27 -0.15,0.37 -0.4,0.67 -0.75,0.91 -0.35,0.24 -0.72,0.36 -1.1,0.36 -0.82,0 -1.45,-0.39 -1.91,-1.18 -0.12,0.3 -0.34,0.58 -0.67,0.82 -0.33,0.24 -0.65,0.36 -0.98,0.36l-1.04 0 0 -3.07 1.05 0c0.51,0 0.87,-0.17 1.07,-0.51 0.09,-0.14 0.18,-0.46 0.29,-0.95 0.07,-0.34 0.21,-0.51 0.41,-0.51 0.19,0 0.33,0.17 0.38,0.51 0.09,0.51 0.17,0.83 0.25,0.95 0.2,0.34 0.58,0.51 1.13,0.51 0.48,0 0.82,-0.17 1.02,-0.52 0.08,-0.12 0.17,-0.44 0.27,-0.95 0.08,-0.34 0.21,-0.51 0.4,-0.51 0.22,0 0.36,0.17 0.41,0.51 0.08,0.45 0.19,0.77 0.34,0.95 0.29,0.35 0.84,0.52 1.64,0.52 0.64,0 0.96,-0.26 0.96,-0.77 0,-0.4 -0.31,-0.97 -0.94,-1.71l1.12 -1.56c0.08,-0.1 0.15,-0.15 0.23,-0.15 0.07,0 0.12,0.06 0.17,0.17 0.45,1.02 0.67,2.06 0.67,3.11z"/>
   <polygon class="fil0" points="24.54,52.95 26.81,52.95 26.89,53.03 26.91,55.96 26.83,56.04 24.56,56.04 24.48,55.96 24.46,53.03 "/>
   <path class="fil0" d="M24.7 56.04l-0.57 0c-0.18,0 -0.33,-0.06 -0.45,-0.18 0.02,2.21 -0.69,4.1 -2.14,5.67 -0.23,0.25 -0.4,0.4 -0.51,0.47 -0.15,0.08 -0.37,0.12 -0.68,0.13 -0.59,0.02 -1.36,-0.03 -2.3,-0.13 -1.28,-0.14 -1.92,-0.36 -1.92,-0.64 0,-0.24 0.28,-0.47 0.82,-0.68 1.1,-0.43 2.02,-0.87 2.79,-1.31 1.97,-1.13 2.96,-2.11 2.96,-2.93 0,-0.68 -0.91,-1.69 -2.74,-3.01l1.54 -2.29c0.11,-0.16 0.19,-0.24 0.25,-0.24 0.07,0 0.17,0.08 0.31,0.24 1.03,1.21 1.82,1.81 2.36,1.81l0.28 0 0 3.09z"/>
   <path class="fil0" d="M18.55 58.4c0.08,0.07 0.08,0.16 -0.01,0.24l-1.17 1.18c-0.05,0.05 -0.09,0.07 -0.14,0.07 -0.03,0 -0.08,-0.02 -0.13,-0.07l-1.13 -1.14 -1.13 1.14c-0.08,0.08 -0.17,0.08 -0.26,0l-1.19 -1.16c-0.1,-0.09 -0.1,-0.2 0.02,-0.31l1.09 -1.11c0.1,-0.11 0.2,-0.11 0.31,0l1.11 1.11 1.12 -1.11c0.09,-0.11 0.19,-0.11 0.3,0l1.21 1.16z"/>
   <path class="fil0" d="M19.64 51.65c0,1.04 -0.24,1.98 -0.72,2.81 -0.62,1.05 -1.49,1.58 -2.63,1.58l-0.75 0 0 -3.09 0.63 0c1.34,0 2.01,-0.19 2.01,-0.59 0,-0.34 -0.6,-1.07 -1.81,-2.17l1.45 -2.23c0.09,-0.12 0.18,-0.14 0.29,-0.05 0.55,0.45 0.97,1.12 1.24,1.99 0.2,0.62 0.29,1.2 0.29,1.75z"/>
   <path class="fil0" d="M16.1 56.05l-0.89 0c-1.15,0 -2.07,-0.35 -2.74,-1.05 -0.51,-0.52 -0.99,-1.42 -1.45,-2.67 -1.11,0.34 -2.08,0.89 -2.89,1.65 -0.92,0.89 -1.38,1.87 -1.38,2.93 0,1.43 0.58,2.55 1.75,3.36 1.02,0.7 2.28,1.05 3.77,1.05 0.84,0 1.61,-0.04 2.29,-0.11 0.48,-0.04 0.72,0.07 0.72,0.33 0,0.32 -0.46,0.56 -1.39,0.74 -0.8,0.15 -1.76,0.22 -2.89,0.22 -1.87,0 -3.42,-0.33 -4.63,-0.98 -1.55,-0.83 -2.32,-2.1 -2.32,-3.81 0,-1.09 0.41,-2.14 1.24,-3.16 1.15,-1.39 2.89,-2.35 5.21,-2.89 -0.32,-0.31 -0.82,-0.66 -1.5,-1.05 -0.43,-0.26 -0.66,-0.48 -0.66,-0.69 0,-0.3 0.35,-0.65 1.05,-1.06 0.75,-0.45 1.49,-0.67 2.22,-0.67 0.65,0 1.24,0.11 1.77,0.34 0.69,0.31 1.04,0.74 1.04,1.31 0,0.57 -0.32,1.04 -0.98,1.42 -0.1,0.05 -0.49,0.27 -1.17,0.63 0.62,0.71 1.63,1.07 3.02,1.07l0.81 0 0 3.09z"/>
  </g>
  <g id="_1384361449872">
   <g>
    <path class="fil0" d="M24.57 13.2c0.29,-0.29 0.77,-0.29 1.06,0 0.29,0.3 0.29,0.77 0,1.06l-1.06 -1.06zm-4.24 4.25l4.24 -4.25 1.06 1.06 -4.24 4.25 -1.12 -0.06 0.06 -1zm1.06 1.06c-0.29,0.29 -0.77,0.29 -1.06,0 -0.29,-0.29 -0.29,-0.77 0,-1.06l1.06 1.06zm-2.1 -3.68l2.15 2.68 -1.17 0.94 -2.15 -2.68 1.17 -0.94zm-1.17 0.94c-0.26,-0.32 -0.21,-0.79 0.11,-1.05 0.32,-0.26 0.8,-0.21 1.06,0.11l-1.17 0.94z"/>
   </g>
   <path class="fil1 str0" d="M48.76 37.68c1.92,0 3.49,1.56 3.49,3.49 0,1.92 -1.57,3.48 -3.49,3.48 -1.93,0 -3.49,-1.56 -3.49,-3.48 0,-1.93 1.56,-3.49 3.49,-3.49zm-19.01 0c1.92,0 3.48,1.56 3.48,3.49 0,1.92 -1.56,3.48 -3.48,3.48 -1.93,0 -3.49,-1.56 -3.49,-3.48 0,-1.93 1.56,-3.49 3.49,-3.49zm-7.72 -30.54c4.8,0 8.69,3.89 8.69,8.69 0,4.8 -3.89,8.69 -8.69,8.69 -4.8,0 -8.69,-3.89 -8.69,-8.69 0,-4.8 3.89,-8.69 8.69,-8.69zm-0.56 17.36l0 12.23c0,2.51 2.06,4.39 4.56,4.57m7.28 0l3.72 0c2.52,0 4.57,-2.06 4.57,-4.57l0 -17.08c0,-2.51 -2.05,-4.57 -4.57,-4.57l-6.14 0m5.74 26.23l6.75 0m1.69 0l-3.47 0 0 -16.23 9.53 0 5.52 5.59 0 10.64 -4.26 0"/>
   <line class="fil1 str1" x1="42.36" y1="30.71" x2="55.82" y2= "30.71" />
  </g>
 </g>
</svg>
