<?xml version="1.0" encoding="UTF-8"?>
<!DOCTYPE svg PUBLIC "-//W3C//DTD SVG 1.1//EN" "http://www.w3.org/Graphics/SVG/1.1/DTD/svg11.dtd">
<!-- Creator: CorelDRAW -->
<svg xmlns="http://www.w3.org/2000/svg" xml:space="preserve" width="70px" height="70px" version="1.1" style="shape-rendering:geometricPrecision; text-rendering:geometricPrecision; image-rendering:optimizeQuality; fill-rule:evenodd; clip-rule:evenodd"
viewBox="0 0 70 70"
 xmlns:xlink="http://www.w3.org/1999/xlink"
 xmlns:xodm="http://www.corel.com/coreldraw/odm/2003">
 <defs>
  <style type="text/css">
   <![CDATA[
    .str1 {stroke:white;stroke-width:2;stroke-linecap:round;stroke-linejoin:round;stroke-miterlimit:2.61313}
    .str0 {stroke:white;stroke-width:2;stroke-linecap:round;stroke-linejoin:round;stroke-miterlimit:1.02428}
    .fil0 {fill:none}
    .fil1 {fill:white;fill-rule:nonzero}
   ]]>
  </style>
 </defs>
 <g id="Layer_x0020_1">
  <metadata id="CorelCorpID_0Corel-Layer"/>
  <g id="_1384219119344">
   <path class="fil0 str0" d="M34.98 8.76l-13.61 8.12c-0.06,14.7 -1.54,21.55 13.61,29.67 14.86,-6.83 14.4,-16.01 14.23,-29.53l-14.23 -8.26z"/>
   <polyline class="fil0 str1" points="29.73,27.22 33.3,31.5 40.84,23.81 "/>
  </g>
  <g id="_1384219119296">
   <path class="fil1" d="M64.18 52.45c0.07,0.06 0.07,0.13 0,0.2l-0.96 0.96c-0.07,0.07 -0.14,0.07 -0.21,0l-0.98 -0.95c-0.08,-0.07 -0.07,-0.15 0.02,-0.25l0.9 -0.91c0.08,-0.08 0.16,-0.08 0.24,0l0.99 0.95z"/>
   <polygon class="fil1" points="57.19,58.38 58.93,58.38 58.99,58.44 59,60.68 58.94,60.74 57.21,60.74 57.15,60.68 57.13,58.44 "/>
   <path class="fil1" d="M57.32 60.74l-0.44 0c-0.14,0 -0.25,-0.04 -0.34,-0.14 0.01,1.7 -0.53,3.14 -1.64,4.34 -0.18,0.19 -0.31,0.31 -0.39,0.36 -0.11,0.06 -0.28,0.09 -0.52,0.1 -0.45,0.01 -1.04,-0.02 -1.76,-0.1 -0.98,-0.11 -1.46,-0.27 -1.46,-0.49 0,-0.18 0.2,-0.36 0.62,-0.52 0.84,-0.33 1.55,-0.66 2.13,-1 1.51,-0.87 2.27,-1.61 2.27,-2.24 0,-0.52 -0.7,-1.29 -2.1,-2.3l1.18 -1.75c0.08,-0.13 0.15,-0.19 0.19,-0.19 0.05,0 0.13,0.06 0.24,0.19 0.79,0.92 1.39,1.38 1.8,1.38l0.22 0 0 2.36zm10.95 -3.99l-0.66 1.22c-0.08,0.16 -0.19,0.25 -0.32,0.27 0.03,-0.01 -0.23,-0.01 -0.76,-0.01 -0.41,0 -1,0.21 -1.79,0.65 -1.22,0.67 -1.99,1.08 -2.3,1.21 -1,0.44 -1.98,0.65 -2.93,0.65l-1.34 0 0 -2.36 1.25 0c0.94,0 1.75,-0.08 2.42,-0.23 0.42,-0.1 1.11,-0.32 2.06,-0.68 -0.33,-0.09 -0.95,-0.32 -1.89,-0.69 -0.72,-0.28 -1.2,-0.43 -1.43,-0.43 -0.31,0 -0.54,0.07 -0.71,0.21 -0.07,0.08 -0.2,0.22 -0.39,0.43 -0.11,0.12 -0.24,0.18 -0.38,0.18 -0.17,0 -0.26,-0.11 -0.26,-0.31 0,-0.07 0.02,-0.14 0.04,-0.22 0.12,-0.38 0.37,-0.79 0.73,-1.24 0.5,-0.63 1.02,-0.94 1.55,-0.94 0.26,0 1.17,0.28 2.75,0.85 1.64,0.6 3.01,0.93 4.11,0.99 0.23,0.01 0.35,0.07 0.35,0.19 0,0.06 -0.03,0.15 -0.1,0.26z"/>
   <path class="fil1" d="M52.62 62.55c0.06,0.05 0.06,0.12 -0.01,0.18l-0.9 0.9c-0.04,0.04 -0.07,0.06 -0.1,0.06 -0.03,0 -0.06,-0.02 -0.1,-0.06l-0.87 -0.86 -0.87 0.86c-0.06,0.06 -0.12,0.06 -0.19,0l-0.91 -0.88c-0.08,-0.07 -0.07,-0.15 0.01,-0.24l0.84 -0.85c0.08,-0.08 0.15,-0.08 0.23,0l0.85 0.85 0.86 -0.85c0.07,-0.08 0.15,-0.08 0.23,0l0.93 0.89z"/>
   <path class="fil1" d="M53.45 57.38c0,0.8 -0.18,1.52 -0.55,2.16 -0.48,0.8 -1.14,1.2 -2.01,1.2l-0.57 0 0 -2.36 0.48 0c1.02,0 1.53,-0.15 1.53,-0.45 0,-0.26 -0.46,-0.81 -1.38,-1.66l1.11 -1.71c0.06,-0.09 0.13,-0.1 0.21,-0.03 0.43,0.34 0.75,0.85 0.96,1.52 0.15,0.47 0.22,0.92 0.22,1.33z"/>
   <path class="fil1" d="M43.61 58.3c0.24,0.14 0.61,0.21 1.09,0.21 1.21,0 2.19,-0.34 2.93,-1.03l-1.2 -3.24 1.07 -1.18c0.08,-0.08 0.14,-0.13 0.18,-0.13 0.05,0 0.09,0.06 0.13,0.17l1.27 3.84c0.31,0.96 0.76,1.44 1.33,1.44l0.33 0 0 2.36 -0.59 0c-0.62,0 -1.13,-0.3 -1.52,-0.9 -0.17,-0.27 -0.41,-0.8 -0.7,-1.6 -0.38,0.71 -0.76,1.24 -1.13,1.58 -0.7,0.65 -1.58,0.98 -2.62,0.98 -0.2,0 -0.39,-0.02 -0.57,-0.06l0 -2.44z"/>
   <path class="fil1" d="M17.03 54.67l-0.34 0.57c-1.04,0.36 -1.87,0.77 -2.51,1.24 -0.1,-0.26 -0.12,-0.42 -0.06,-0.5 0.1,-0.11 0.35,-0.32 0.77,-0.61 -0.44,-0.25 -0.66,-0.51 -0.66,-0.79 0,-0.3 0.17,-0.61 0.51,-0.93 0.34,-0.33 0.66,-0.5 0.95,-0.5 0.3,0 0.54,0.12 0.72,0.36 0.1,0.14 0.15,0.24 0.15,0.31 0,0.07 -0.06,0.11 -0.19,0.11 -0.07,0 -0.18,-0.01 -0.32,-0.03 -0.14,-0.02 -0.24,-0.03 -0.31,-0.03 -0.53,0 -0.79,0.11 -0.79,0.33 0,0.09 0.1,0.21 0.29,0.36 0.16,0.12 0.3,0.2 0.42,0.25 0.4,-0.13 0.78,-0.25 1.13,-0.36 0.05,-0.02 0.11,-0.03 0.17,-0.03 0.08,0 0.12,0.03 0.12,0.1 0,0.04 -0.02,0.09 -0.05,0.15z"/>
   <path class="fil1" d="M8.99 56.13c0.07,0.07 0.07,0.14 0,0.2l-0.97 0.97c-0.06,0.06 -0.13,0.06 -0.2,0l-0.99 -0.95c-0.08,-0.08 -0.07,-0.16 0.02,-0.25l0.9 -0.92c0.09,-0.08 0.17,-0.08 0.25,0l0.99 0.95z"/>
   <path class="fil1" d="M12.79 60.66c0.03,0.25 0.04,0.5 0.04,0.73 0,1.42 -0.48,2.48 -1.44,3.2 -0.85,0.65 -2.01,0.97 -3.47,0.97 -1.23,0 -2.25,-0.24 -3.04,-0.71 -0.96,-0.59 -1.45,-1.46 -1.45,-2.61 0,-1.13 0.26,-2.09 0.78,-2.87 0.14,-0.2 0.28,-0.3 0.43,-0.3 0.12,0 0.18,0.08 0.18,0.23 0,0.09 -0.02,0.19 -0.06,0.3 -0.18,0.56 -0.27,1.06 -0.27,1.5 0,1.41 1.15,2.11 3.46,2.11 0.92,0 1.76,-0.1 2.51,-0.32 1.12,-0.31 1.68,-0.8 1.68,-1.45 0,-0.46 -0.64,-1.38 -1.92,-2.75l1.02 -1.71c0.08,-0.14 0.15,-0.2 0.21,-0.2 0.05,0 0.12,0.05 0.21,0.15 0.42,0.52 0.74,0.88 0.97,1.07 1.16,0.98 4.05,0.88 4.47,-1.1 0.07,-0.35 0.2,-0.52 0.39,-0.52 0.18,0 0.3,0.17 0.34,0.52 0.23,2.06 2.69,1.87 3.02,1.2 0.08,-0.15 0.11,-0.4 0.11,-0.76 0,-0.59 0.16,-1.1 0.46,-1.53 0.38,-0.53 0.93,-0.8 1.66,-0.8 0.57,0 1.08,0.31 1.54,0.92l1.01 1.69c0.73,1.18 1.4,0.91 2.6,0.91 0.17,-0.39 0.25,-0.9 0.25,-1.53 0,-1.37 -0.27,-2.83 -0.83,-4.39l1.3 -1.51c0.12,-0.13 0.2,-0.19 0.26,-0.19 0.06,0 0.13,0.08 0.2,0.23l0.94 2.05c0.07,0.16 0.1,0.28 0.1,0.35 0,0.11 -0.06,0.15 -0.2,0.15 -0.12,0 -0.31,-0.04 -0.58,-0.12 0.01,0.97 -0.06,1.87 -0.21,2.68 0,0 -0.09,0.49 -0.27,1.46 2.08,-1.76 3.83,-2.64 5.24,-2.64 0.47,0 0.87,0.13 1.2,0.39 0.35,0.29 0.53,0.66 0.53,1.12 0,0.52 -0.27,1.11 -0.8,1.75 0.52,0.25 2.3,0.45 2.64,-0.19 0.09,-0.17 0.13,-0.47 0.13,-0.88 0,-0.53 0.17,-0.99 0.5,-1.38 0.33,-0.38 0.76,-0.58 1.28,-0.58 0.8,0 1.43,0.45 1.89,1.35 0.38,0.73 0.57,1.53 0.57,2.41 0,0.57 -0.12,1.06 -0.34,1.46 -0.28,0.49 -0.69,0.73 -1.22,0.73 -0.94,0 -1.67,-0.61 -2.16,-1.84 -0.67,1.73 -2.75,2.06 -3.84,0.92 -0.28,-0.28 -0.49,-0.57 -0.63,-0.89 -1,0.97 -2.92,1.45 -5.78,1.45 -0.74,0 -1.98,0.17 -2.55,-0.35 -0.16,-0.15 -0.36,-0.39 -0.58,-0.74 -0.41,0.91 -0.91,1.37 -1.53,1.37 -0.75,0 -1.49,-0.56 -2.2,-1.68 -0.15,0.34 -0.35,0.65 -0.6,0.91 -1.03,1.05 -3.03,0.42 -3.49,-1 -0.48,1.64 -3.8,1.92 -4.66,1.26zm28.38 -3.11c-0.33,-0.74 -0.68,-1.1 -1.08,-1.1 -0.34,0 -0.51,0.23 -0.51,0.71 0,0.33 0.08,0.71 0.24,1.12 0.32,0.83 0.76,1.24 1.3,1.24 0.27,0 0.41,-0.2 0.41,-0.6 0,-0.37 -0.12,-0.82 -0.36,-1.37zm-6.65 0.09c0,-0.3 -0.18,-0.55 -0.54,-0.74 -0.29,-0.16 -0.61,-0.24 -0.93,-0.24 -0.96,0 -2.23,0.63 -3.81,1.89 0.56,0.03 1.09,0.05 1.6,0.05 2.45,0 3.68,-0.32 3.68,-0.96zm-10.18 1.64c0.22,0 0.33,-0.16 0.33,-0.47 0,-0.38 -0.14,-0.84 -0.41,-1.4 -0.38,-0.75 -0.8,-1.13 -1.26,-1.13 -0.32,0 -0.48,0.22 -0.48,0.65 0,0.39 0.12,0.8 0.37,1.22 0.46,0.75 0.94,1.13 1.45,1.13z"/>
  </g>
 </g>
</svg>
