<?xml version="1.0" encoding="UTF-8"?>
<!DOCTYPE svg PUBLIC "-//W3C//DTD SVG 1.1//EN" "http://www.w3.org/Graphics/SVG/1.1/DTD/svg11.dtd">
<!-- Creator: CorelDRAW -->
<svg xmlns="http://www.w3.org/2000/svg" xml:space="preserve" width="70px" height="70px" version="1.1" style="shape-rendering:geometricPrecision; text-rendering:geometricPrecision; image-rendering:optimizeQuality; fill-rule:evenodd; clip-rule:evenodd"
viewBox="0 0 70 70"
 xmlns:xlink="http://www.w3.org/1999/xlink"
 xmlns:xodm="http://www.corel.com/coreldraw/odm/2003">
 <defs>
  <style type="text/css">
   <![CDATA[
    .str1 {stroke:white;stroke-miterlimit:2.61313}
    .str0 {stroke:white;stroke-linecap:round;stroke-linejoin:round;stroke-miterlimit:2.61313}
    .fil0 {fill:none}
    .fil1 {fill:white}
    .fil2 {fill:white;fill-rule:nonzero}
   ]]>
  </style>
 </defs>
 <g id="Layer_x0020_1">
  <metadata id="CorelCorpID_0Corel-Layer"/>
  <g id="_1384381389728">
   <path class="fil0 str0" d="M46.81 14.79l3.43 8.29c0.24,0.56 -0.03,1.21 -0.59,1.44l-2.56 1.07m-7.72 1.01l-21.12 0c-0.61,0 -1.11,-0.5 -1.11,-1.11l0 -16.59c0,-0.61 0.5,-1.1 1.11,-1.1l27.26 0c0.61,0 1.11,0.49 1.11,1.1l0 16.59m-6.01 2.59l-3.64 -4.62c-0.89,-1.05 -1.54,-3.15 -0.35,-4.25 1.55,-1.42 3.74,-0.15 4.89,1.05l7.98 8.37m-6.85 8.8l-1.94 -9.2 -16.24 6.74c-0.56,0.24 -1.21,-0.03 -1.44,-0.6l-3.22 -7.75"/>
   <line class="fil0 str1" x1="21.46" y1="29.47" x2="27.36" y2= "26.67" />
   <path class="fil1" d="M20.46 9.87l3.38 0c0.66,0 1.19,0.53 1.19,1.19l0 3.56c0,0.65 -0.53,1.19 -1.19,1.19l-3.38 0c-0.66,0 -1.19,-0.54 -1.19,-1.19l0 -3.56c0,-0.66 0.53,-1.19 1.19,-1.19zm1.49 4.85l0 -0.4c-0.2,-0.03 -0.37,-0.08 -0.49,-0.14 -0.13,-0.07 -0.24,-0.17 -0.33,-0.32 -0.09,-0.14 -0.15,-0.32 -0.16,-0.53l0.4 -0.08c0.04,0.22 0.09,0.38 0.17,0.48 0.12,0.14 0.25,0.23 0.41,0.24l0 -1.27c-0.17,-0.05 -0.34,-0.12 -0.51,-0.21 -0.13,-0.08 -0.23,-0.18 -0.3,-0.3 -0.07,-0.13 -0.1,-0.28 -0.1,-0.44 0,-0.29 0.1,-0.52 0.3,-0.7 0.14,-0.12 0.34,-0.2 0.61,-0.22l0 -0.2 0.24 0 0 0.2c0.24,0.02 0.42,0.09 0.56,0.21 0.18,0.14 0.28,0.35 0.32,0.6l-0.42 0.07c-0.02,-0.16 -0.07,-0.29 -0.15,-0.37 -0.07,-0.09 -0.18,-0.14 -0.31,-0.17l0 1.17c0.21,0.05 0.34,0.09 0.41,0.12 0.12,0.06 0.23,0.12 0.3,0.2 0.09,0.08 0.15,0.18 0.19,0.29 0.04,0.11 0.06,0.23 0.06,0.35 0,0.29 -0.09,0.52 -0.27,0.71 -0.17,0.19 -0.4,0.29 -0.69,0.3l0 0.41 -0.24 0zm0 -3.55c-0.15,0.02 -0.28,0.08 -0.37,0.19 -0.09,0.1 -0.14,0.22 -0.14,0.36 0,0.14 0.04,0.25 0.12,0.35 0.08,0.09 0.21,0.16 0.39,0.21l0 -1.11zm0.24 2.8c0.16,-0.02 0.29,-0.08 0.39,-0.2 0.11,-0.12 0.16,-0.27 0.16,-0.44 0,-0.15 -0.04,-0.26 -0.11,-0.35 -0.08,-0.09 -0.22,-0.16 -0.44,-0.22l0 1.21z"/>
   <rect class="fil1" x="35.25" y="10.27" width="1.32" height="2.02" rx="0.28" ry="0.28"/>
   <rect class="fil1" x="37.52" y="10.27" width="1.32" height="2.02" rx="0.28" ry="0.28"/>
   <rect class="fil1" x="39.99" y="10.27" width="1.32" height="2.02" rx="0.28" ry="0.28"/>
   <rect class="fil1" x="42.47" y="10.27" width="1.32" height="2.02" rx="0.28" ry="0.28"/>
   <rect class="fil1" x="19.55" y="17.56" width="2.69" height="1.42" rx="0.56" ry="0.19"/>
   <rect class="fil1" x="23.27" y="17.56" width="2.69" height="1.42" rx="0.56" ry="0.19"/>
   <rect class="fil1" x="26.91" y="17.54" width="2.69" height="1.42" rx="0.56" ry="0.19"/>
   <rect class="fil1" x="30.48" y="17.54" width="2.69" height="1.42" rx="0.56" ry="0.19"/>
   <rect class="fil1" x="30.48" y="21.39" width="2.69" height="1.42" rx="0.56" ry="0.19"/>
   <rect class="fil1" x="19.58" y="21.39" width="2.69" height="1.42" rx="0.56" ry="0.19"/>
   <path class="fil0 str0" d="M52.77 37.43l0.09 -16.43 -6.05 -6.21m5.96 22.64l-10.13 0c-0.93,1.94 -1.06,4 0,6.25l10.13 0 0 -6.25z"/>
   <rect class="fil1" x="43.77" y="39.65" width="1.32" height="0.7" rx="0.28" ry="0.1"/>
  </g>
  <g id="_1384381371632">
   <path class="fil2" d="M35.08 44.66c-0.04,-0.04 -0.04,-0.09 0.01,-0.14l0.66 -0.65c0.05,-0.05 0.09,-0.05 0.14,0l0.63 0.64 0.64 -0.64c0.04,-0.05 0.09,-0.05 0.14,0l0.66 0.65c0.06,0.05 0.05,0.1 -0.01,0.17l-0.61 0.62c-0.05,0.05 -0.11,0.05 -0.17,0l-0.62 -0.62 -0.62 0.62c-0.06,0.05 -0.11,0.05 -0.17,0l-0.68 -0.65z"/>
   <path class="fil2" d="M35.77 45.85c-0.04,-0.05 -0.04,-0.09 0,-0.14l0.65 -0.65c0.05,-0.04 0.1,-0.04 0.15,0l0.65 0.64c0.05,0.05 0.05,0.11 -0.01,0.17l-0.61 0.61c-0.05,0.06 -0.1,0.06 -0.16,0l-0.67 -0.63z"/>
   <path class="fil2" d="M38.67 40.92c0,0.58 -0.14,1.1 -0.41,1.57 -0.34,0.59 -0.83,0.88 -1.46,0.88l-0.42 0 0 -1.73 0.35 0c0.75,0 1.12,-0.1 1.12,-0.32 0,-0.19 -0.33,-0.6 -1.01,-1.22l0.81 -1.24c0.05,-0.07 0.1,-0.08 0.16,-0.03 0.31,0.25 0.54,0.62 0.7,1.11 0.11,0.35 0.16,0.67 0.16,0.98z"/>
   <polygon class="fil2" points="35.67,41.64 36.93,41.64 36.98,41.69 36.99,43.32 36.95,43.37 35.68,43.37 35.63,43.32 35.62,41.69 "/>
   <path class="fil2" d="M35.76 43.37l-0.32 0c-0.1,0 -0.18,-0.04 -0.25,-0.1 0.01,1.23 -0.39,2.29 -1.2,3.16 -0.12,0.14 -0.22,0.23 -0.28,0.26 -0.08,0.05 -0.21,0.07 -0.38,0.08 -0.33,0.01 -0.76,-0.02 -1.29,-0.08 -0.71,-0.08 -1.06,-0.2 -1.06,-0.35 0,-0.13 0.15,-0.26 0.45,-0.38 0.61,-0.24 1.13,-0.49 1.56,-0.73 1.1,-0.63 1.65,-1.18 1.65,-1.64 0,-0.38 -0.51,-0.94 -1.53,-1.68l0.86 -1.28c0.06,-0.09 0.11,-0.13 0.14,-0.13 0.04,0 0.09,0.04 0.17,0.13 0.58,0.68 1.02,1.01 1.32,1.01l0.16 0 0 1.73z"/>
   <path class="fil2" d="M30.22 37.62l0.11 0c0.46,0.08 1.11,0.63 1.95,1.65 0.42,0.56 0.63,1.06 0.63,1.52 0,1.22 -0.3,1.99 -0.89,2.3 -0.34,0.19 -0.72,0.29 -1.13,0.29l-1.48 0c-0.15,0 -0.22,-0.02 -0.22,-0.05l0 -1.81 0.02 0c0.25,0.09 0.55,0.13 0.9,0.13l0.52 0c1.08,0 1.65,-0.14 1.72,-0.41l0 -0.01c-0.02,-0.3 -0.66,-0.84 -1.9,-1.63 -0.19,-0.09 -0.34,-0.15 -0.46,-0.16l-0.07 0 -0.34 0.09c-0.11,0 -0.17,-0.07 -0.19,-0.21 0,-0.12 0.21,-0.65 0.63,-1.6 0.06,-0.07 0.13,-0.1 0.2,-0.1z"/>
   <path class="fil2" d="M29.08 36.35l-0.55 6.57c-0.02,0.33 -0.11,0.49 -0.26,0.49 -0.15,0 -0.25,-0.2 -0.3,-0.62l-0.64 -5.49 1.53 -1.11c0.07,-0.05 0.12,-0.07 0.16,-0.07 0.05,0 0.07,0.08 0.06,0.23z"/>
   <path class="fil2" d="M24.27 37.31c0.05,0.05 0.05,0.1 0,0.15l-0.7 0.7c-0.05,0.05 -0.1,0.05 -0.16,0l-0.71 -0.69c-0.06,-0.06 -0.05,-0.11 0.01,-0.18l0.66 -0.67c0.06,-0.06 0.12,-0.06 0.18,0l0.72 0.69z"/>
   <path class="fil2" d="M27.26 40.46l-0.48 0.88c-0.07,0.12 -0.14,0.19 -0.24,0.2 0.02,-0.01 -0.17,-0.01 -0.55,-0.01 -0.3,0 -0.74,0.16 -1.31,0.48 -0.89,0.49 -1.45,0.79 -1.68,0.88 -0.73,0.32 -1.44,0.48 -2.14,0.48l-0.98 0 0 -1.73 0.92 0c0.68,0 1.27,-0.05 1.76,-0.16 0.31,-0.08 0.81,-0.24 1.5,-0.5 -0.23,-0.07 -0.69,-0.24 -1.38,-0.51 -0.52,-0.2 -0.87,-0.31 -1.03,-0.31 -0.23,0 -0.4,0.05 -0.52,0.16 -0.06,0.05 -0.15,0.16 -0.29,0.31 -0.08,0.08 -0.17,0.13 -0.28,0.13 -0.12,0 -0.19,-0.08 -0.19,-0.23 0,-0.05 0.01,-0.1 0.03,-0.16 0.09,-0.27 0.27,-0.57 0.53,-0.9 0.37,-0.46 0.75,-0.69 1.13,-0.69 0.19,0 0.86,0.21 2.01,0.63 1.2,0.43 2.2,0.67 3,0.71 0.17,0.01 0.26,0.06 0.26,0.15 0,0.04 -0.03,0.1 -0.07,0.19z"/>
   <path class="fil2" d="M19.15 40.54c0.12,0.04 0.18,0.12 0.18,0.25l-0.11 0.49c0,0.24 0.31,0.36 0.95,0.36l0.02 0.03 0 1.65 -0.05 0.04 -0.18 0c-0.61,0 -1.04,-0.34 -1.29,-1.01l-0.02 0c-0.36,0.42 -0.97,0.73 -1.83,0.92 -0.53,0.09 -1.15,0.15 -1.88,0.18l0 -0.02 -0.02 0.02 -0.02 0 -4.1 -0.02 0 -0.02 0 -1.7 0 -0.02 0.28 0 2.35 0.02 1.22 0c1.46,0 2.61,-0.13 3.46,-0.4 0.1,-0.04 0.36,-0.26 0.79,-0.66 0.11,-0.08 0.2,-0.11 0.25,-0.11z"/>
   <path class="fil2" d="M15.62 39.9c0.04,0.05 0.04,0.09 -0.01,0.14l-0.66 0.66c-0.05,0.05 -0.1,0.05 -0.14,0l-0.64 -0.64 -0.63 0.64c-0.04,0.05 -0.09,0.05 -0.14,0l-0.67 -0.65c-0.06,-0.05 -0.05,-0.11 0.01,-0.18l0.61 -0.61c0.06,-0.06 0.12,-0.06 0.17,0l0.63 0.61 0.62 -0.61c0.05,-0.06 0.11,-0.06 0.17,0l0.68 0.64z"/>
  </g>
  <g id="_1384381373504">
   <path class="fil2" d="M62.77 51.55l-0.79 9.56c-0.04,0.48 -0.17,0.71 -0.38,0.71 -0.22,0 -0.37,-0.3 -0.44,-0.89l-0.93 -8.01 2.22 -1.61c0.1,-0.07 0.18,-0.11 0.23,-0.11 0.08,0 0.11,0.12 0.09,0.35z"/>
   <path class="fil2" d="M60.24 59.83c0,0.61 -0.12,1.12 -0.36,1.55 -0.3,0.52 -0.73,0.78 -1.29,0.78 -1.01,0 -1.78,-0.65 -2.31,-1.95 -0.4,1.04 -0.96,1.56 -1.67,1.56l-0.4 0 0 -2.51 0.58 0c0.4,0 0.67,-0.14 0.81,-0.41 0.09,-0.18 0.14,-0.5 0.14,-0.93 0,-0.57 0.17,-1.06 0.52,-1.47 0.36,-0.41 0.81,-0.61 1.37,-0.61 0.85,0 1.52,0.47 2.01,1.43 0.4,0.77 0.6,1.63 0.6,2.56zm-1.28 -1.61c-0.34,-0.78 -0.72,-1.17 -1.14,-1.17 -0.36,0 -0.55,0.25 -0.55,0.76 0,0.35 0.09,0.75 0.26,1.19 0.35,0.88 0.81,1.32 1.39,1.32 0.28,0 0.43,-0.21 0.43,-0.64 0,-0.39 -0.13,-0.88 -0.39,-1.46z"/>
   <polygon class="fil2" points="53.28,59.25 54.71,59.25 54.76,59.32 54.78,61.7 54.73,61.76 53.3,61.76 53.25,61.7 53.23,59.32 "/>
   <path class="fil2" d="M47.76 56.71c0.08,0.07 0.08,0.14 0,0.21l-1.02 1.02c-0.08,0.07 -0.15,0.07 -0.23,0l-1.04 -1c-0.08,-0.08 -0.08,-0.17 0.02,-0.27l0.96 -0.97c0.09,-0.09 0.17,-0.09 0.26,0l1.05 1.01z"/>
   <path class="fil2" d="M53.49 61.76l-0.51 0c-0.58,0 -0.97,-0.08 -1.18,-0.24 0.03,0.27 0.05,0.53 0.05,0.78 0,1.5 -0.51,2.63 -1.53,3.4 -0.91,0.68 -2.14,1.03 -3.69,1.03 -1.32,0 -2.4,-0.26 -3.24,-0.76 -1.02,-0.62 -1.54,-1.54 -1.54,-2.77 0,-1.2 0.28,-2.22 0.83,-3.05 0.15,-0.21 0.3,-0.32 0.46,-0.32 0.12,0 0.19,0.08 0.19,0.25 0,0.09 -0.02,0.19 -0.06,0.31 -0.2,0.6 -0.3,1.13 -0.3,1.59 0,1.5 1.23,2.25 3.69,2.25 0.98,0 1.87,-0.11 2.67,-0.34 1.19,-0.33 1.78,-0.85 1.78,-1.54 0,-0.49 -0.68,-1.46 -2.05,-2.93l1.09 -1.81c0.09,-0.15 0.16,-0.22 0.23,-0.22 0.05,0 0.13,0.06 0.22,0.17 0.45,0.55 0.79,0.93 1.03,1.13 0.45,0.38 0.91,0.56 1.4,0.56l0.46 0 0 2.51z"/>
   <path class="fil2" d="M40.68 49.6c-0.37,0.39 -0.95,0.72 -1.74,0.99 -0.74,0.25 -1.41,0.38 -1.99,0.38 -0.22,0 -0.53,-0.03 -0.95,-0.11 -0.42,-0.07 -0.74,-0.1 -0.96,-0.1 -0.11,0 -0.25,0.06 -0.41,0.18 -0.16,0.13 -0.28,0.19 -0.37,0.19 -0.11,0 -0.17,-0.07 -0.17,-0.22 0,-0.2 0.11,-0.5 0.33,-0.9 0.27,-0.49 0.67,-0.74 1.19,-0.74 0.21,0 0.54,0.06 0.99,0.16 0.45,0.1 0.79,0.15 1.02,0.15 1.09,0 2.06,-0.1 2.93,-0.29 0.17,-0.04 0.26,-0.01 0.26,0.09 0,0.07 -0.04,0.14 -0.13,0.22z"/>
   <path class="fil2" d="M38.52 51.54l-0.79 9.57c-0.04,0.48 -0.17,0.71 -0.39,0.71 -0.21,0 -0.35,-0.3 -0.43,-0.9l-0.93 -8.01 2.21 -1.61c0.1,-0.07 0.17,-0.11 0.23,-0.11 0.08,0 0.12,0.12 0.1,0.35z"/>
   <path class="fil2" d="M33.99 53.41c0.07,0.08 0.07,0.15 0,0.23l-1.02 1.02c-0.08,0.07 -0.15,0.07 -0.23,0l-1.04 -1.01c-0.09,-0.08 -0.08,-0.17 0.02,-0.27l0.96 -0.97c0.08,-0.09 0.17,-0.09 0.26,0l1.05 1z"/>
   <path class="fil2" d="M35.9 58.19c0,0.85 -0.19,1.61 -0.59,2.29 -0.5,0.86 -1.21,1.28 -2.13,1.28l-0.61 0 0 -2.51 0.51 0c1.08,0 1.63,-0.16 1.63,-0.47 0,-0.29 -0.49,-0.87 -1.47,-1.77l1.18 -1.82c0.07,-0.1 0.14,-0.11 0.23,-0.04 0.45,0.37 0.79,0.91 1.01,1.63 0.16,0.5 0.24,0.97 0.24,1.41z"/>
   <polygon class="fil2" points="33.32,59.25 33.32,61.76 32.17,61.76 32.13,59.25 "/>
   <path class="fil2" d="M31.92 61.76c-1.12,0 -1.69,-1.15 -1.7,-3.46 0,-0.31 0.01,-0.66 0.01,-1.06l0.02 -1.07c0,-0.05 -0.01,-0.19 -0.02,-0.42 -0.34,1.09 -0.73,2.14 -1.16,3.16 -0.57,1.37 -1.03,2.21 -1.38,2.53 -0.28,0.26 -0.89,0.43 -1.81,0.52 -0.58,0.06 -1.04,0.08 -1.39,0.08 -0.73,0 -1.09,-0.09 -1.09,-0.29 0,-0.15 0.2,-0.32 0.6,-0.5 0.29,-0.13 0.9,-0.44 1.83,-0.94 1.17,-0.62 1.78,-1.1 1.82,-1.46 0.03,-0.21 -0.07,-0.55 -0.3,-1.02 -0.38,-0.77 -0.98,-1.48 -1.82,-2.13 -0.48,-0.38 -1.28,-0.89 -2.39,-1.53 -0.12,-0.07 -0.17,-0.19 -0.15,-0.35 0.06,-0.63 0.12,-1.28 0.19,-1.95 0.03,-0.19 0.07,-0.29 0.14,-0.29 0.05,0 0.14,0.05 0.28,0.14 0.65,0.46 1.5,0.82 2.51,1.08 0.32,0.08 0.47,0.17 0.47,0.28 0,0.14 -0.27,0.32 -0.81,0.57 0.66,0.53 1.23,1.23 1.69,2.09 0.46,0.87 0.74,1.73 0.83,2.58 1,-1.47 1.68,-3.76 2.03,-6.87 0.04,-0.37 0.17,-0.54 0.39,-0.54 0.2,0 0.3,0.16 0.31,0.5l0.21 5.38c0.03,0.92 0.1,1.52 0.2,1.8 0.14,0.44 0.46,0.66 0.95,0.66l0.01 2.51 -0.47 0z"/>
   <path class="fil2" d="M23.52 63.68c0.07,0.06 0.07,0.13 -0.01,0.2l-0.95 0.95c-0.04,0.04 -0.08,0.06 -0.11,0.06 -0.03,0 -0.07,-0.02 -0.11,-0.06l-0.92 -0.92 -0.92 0.92c-0.07,0.07 -0.13,0.07 -0.2,0l-0.98 -0.94c-0.08,-0.07 -0.07,-0.16 0.02,-0.25l0.89 -0.91c0.08,-0.08 0.16,-0.08 0.24,0l0.91 0.91 0.91 -0.91c0.08,-0.08 0.16,-0.08 0.24,0l0.99 0.95z"/>
   <path class="fil2" d="M24.41 58.19c0,0.85 -0.2,1.61 -0.59,2.29 -0.5,0.86 -1.21,1.28 -2.13,1.28l-0.61 0 0 -2.51 0.51 0c1.08,0 1.63,-0.16 1.63,-0.47 0,-0.29 -0.49,-0.87 -1.47,-1.77l1.18 -1.82c0.07,-0.1 0.14,-0.11 0.23,-0.04 0.45,0.37 0.79,0.91 1.01,1.63 0.16,0.5 0.24,0.97 0.24,1.41z"/>
   <polygon class="fil2" points="20.18,59.25 21.61,59.25 21.66,59.32 21.68,61.7 21.63,61.76 20.2,61.76 20.15,61.7 20.13,59.32 "/>
   <path class="fil2" d="M14.66 56.71c0.07,0.07 0.07,0.14 0,0.21l-1.02 1.02c-0.08,0.07 -0.15,0.07 -0.23,0l-1.04 -1c-0.09,-0.08 -0.08,-0.17 0.02,-0.27l0.96 -0.97c0.09,-0.09 0.17,-0.09 0.26,0l1.05 1.01z"/>
   <path class="fil2" d="M20.38 61.76l-0.5 0c-0.58,0 -0.97,-0.08 -1.18,-0.24 0.03,0.27 0.05,0.53 0.05,0.78 0,1.5 -0.51,2.63 -1.54,3.4 -0.9,0.68 -2.13,1.03 -3.68,1.03 -1.32,0 -2.4,-0.26 -3.24,-0.76 -1.02,-0.62 -1.54,-1.54 -1.54,-2.77 0,-1.2 0.28,-2.22 0.83,-3.05 0.15,-0.21 0.3,-0.32 0.46,-0.32 0.12,0 0.19,0.08 0.19,0.25 0,0.09 -0.02,0.19 -0.06,0.31 -0.2,0.6 -0.3,1.13 -0.3,1.59 0,1.5 1.23,2.25 3.69,2.25 0.98,0 1.87,-0.11 2.67,-0.34 1.19,-0.33 1.78,-0.85 1.78,-1.54 0,-0.49 -0.68,-1.46 -2.05,-2.93l1.09 -1.81c0.09,-0.15 0.16,-0.22 0.22,-0.22 0.06,0 0.14,0.06 0.23,0.17 0.45,0.55 0.79,0.93 1.03,1.13 0.45,0.38 0.91,0.56 1.4,0.56l0.45 0 0 2.51z"/>
  </g>
 </g>
</svg>
