<?xml version="1.0" encoding="UTF-8"?>
<!DOCTYPE svg PUBLIC "-//W3C//DTD SVG 1.1//EN" "http://www.w3.org/Graphics/SVG/1.1/DTD/svg11.dtd">
<!-- Creator: CorelDRAW -->
<svg xmlns="http://www.w3.org/2000/svg" xml:space="preserve" width="70px" height="70px" version="1.1" style="shape-rendering:geometricPrecision; text-rendering:geometricPrecision; image-rendering:optimizeQuality; fill-rule:evenodd; clip-rule:evenodd"
viewBox="0 0 70 70"
 xmlns:xlink="http://www.w3.org/1999/xlink"
 xmlns:xodm="http://www.corel.com/coreldraw/odm/2003">
 <defs>
  <style type="text/css">
   <![CDATA[
    .str1 {stroke:white;stroke-miterlimit:2.61313}
    .str0 {stroke:white;stroke-linecap:round;stroke-linejoin:round;stroke-miterlimit:2.61313}
    .fil0 {fill:none}
    .fil1 {fill:white;fill-rule:nonzero}
   ]]>
  </style>
 </defs>
 <g id="Layer_x0020_1">
  <metadata id="CorelCorpID_0Corel-Layer"/>
  <g id="_1384381475744">
   <path class="fil0 str0" d="M26.21 32.25l-5.69 8.52 6.72 -1.16 1.87 6.25 5.84 -9.88 5.96 9.64 2.27 -6.01 5.67 0.99 -4.44 -7.89m-9.18 -25.76c7.87,0 14.25,6.38 14.25,14.26 0,4.71 -2.28,8.89 -5.81,11.48 -2.36,1.75 -5.28,2.77 -8.44,2.77 -3.42,0 -6.56,-1.2 -9.02,-3.21 -3.2,-2.61 -5.24,-6.59 -5.24,-11.04 0,-7.88 6.38,-14.26 14.26,-14.26z"/>
   <circle class="fil0 str1" cx="35.23" cy="21.21" r="10.61"/>
   <polygon class="fil0 str0" points="35.26,14.02 36.73,19.19 41.55,19.18 37.65,22.36 39.14,27.51 35.26,24.32 31.36,27.51 32.86,22.36 28.96,19.18 33.78,19.19 "/>
  </g>
  <g id="_1384381466768">
   <path class="fil1" d="M61.7 46.14c0.04,0.04 0.04,0.09 -0.01,0.14l-0.69 0.69c-0.05,0.05 -0.1,0.05 -0.15,0l-0.7 -0.68c-0.05,-0.05 -0.05,-0.11 0.02,-0.18l0.64 -0.65c0.06,-0.06 0.12,-0.06 0.18,0l0.71 0.68z"/>
   <path class="fil1" d="M65.26 48.2c0,0.37 -0.13,0.78 -0.41,1.24 -0.37,0.61 -0.85,1.08 -1.46,1.41 -0.61,0.33 -1.27,0.5 -2,0.5 -0.99,0 -1.66,-0.19 -2.01,-0.58 -0.23,0.39 -0.55,0.58 -0.94,0.58l-0.48 0 0 -1.69 0.31 0c0.32,0 0.55,-0.1 0.69,-0.3 0.07,-0.1 0.14,-0.28 0.21,-0.54 0.05,-0.2 0.12,-0.3 0.21,-0.3 0.06,0 0.16,0.18 0.3,0.53 0.13,0.35 0.29,0.53 0.48,0.53 0.5,-0.67 1.09,-1.24 1.78,-1.72 0.8,-0.55 1.52,-0.83 2.17,-0.83 0.31,0 0.58,0.12 0.81,0.36 0.23,0.23 0.34,0.5 0.34,0.81zm-1.02 0.97c0,-0.22 -0.16,-0.41 -0.48,-0.57 -0.27,-0.13 -0.53,-0.19 -0.78,-0.19 -0.76,0 -1.46,0.41 -2.09,1.24 0.23,0.04 0.57,0.06 1.03,0.06 0.6,0 1.11,-0.04 1.54,-0.12 0.52,-0.1 0.78,-0.24 0.78,-0.42z"/>
   <path class="fil1" d="M58.27 51.35l-0.41 0c-0.27,0 -0.51,-0.08 -0.7,-0.25 -0.11,-0.11 -0.25,-0.28 -0.41,-0.53 -0.29,0.65 -0.65,0.98 -1.09,0.98 -0.54,0 -1.07,-0.4 -1.58,-1.2 -0.1,0.25 -0.24,0.46 -0.42,0.65 -0.23,0.24 -0.48,0.35 -0.74,0.35l-0.36 0 0 -1.68 0.38 0c0.33,0 0.55,-0.11 0.65,-0.31 0.06,-0.11 0.08,-0.29 0.08,-0.54 0,-0.43 0.11,-0.79 0.33,-1.1 0.27,-0.38 0.67,-0.57 1.19,-0.57 0.4,0 0.77,0.22 1.1,0.66l0.72 1.2c0.27,0.44 0.54,0.66 0.8,0.66l0.46 0 0 1.68zm-2.18 -1.15c0.15,0 0.23,-0.11 0.23,-0.34 0,-0.26 -0.1,-0.6 -0.29,-1 -0.27,-0.53 -0.57,-0.8 -0.9,-0.8 -0.23,0 -0.35,0.15 -0.35,0.46 0,0.28 0.09,0.57 0.27,0.87 0.33,0.54 0.67,0.81 1.04,0.81z"/>
   <polygon class="fil1" points="51.97,49.66 52.81,49.66 52.84,49.71 52.85,51.31 52.82,51.35 51.98,51.35 51.95,51.31 51.94,49.71 "/>
   <path class="fil1" d="M52.18 51.35l-0.54 0c-0.98,0 -1.47,-0.79 -1.47,-2.36 0,-1.26 -0.04,-2.58 -0.13,-3.97l1 -0.71c0.13,-0.09 0.21,-0.13 0.25,-0.13 0.06,0 0.08,0.09 0.08,0.28l-0.01 4.41c0,0.53 0.23,0.79 0.67,0.79l0.15 0 0 1.69z"/>
   <path class="fil1" d="M48.68 45.74c0.04,0.05 0.04,0.1 -0.01,0.15l-0.68 0.68c-0.05,0.05 -0.1,0.05 -0.15,0l-0.71 -0.68c-0.05,-0.05 -0.05,-0.11 0.02,-0.17l0.64 -0.66c0.06,-0.05 0.12,-0.05 0.18,0l0.71 0.68z"/>
   <path class="fil1" d="M49.96 48.95c0,0.57 -0.13,1.08 -0.4,1.54 -0.33,0.57 -0.81,0.86 -1.43,0.86l-0.41 0 0 -1.69 0.34 0c0.73,0 1.1,-0.11 1.1,-0.32 0,-0.19 -0.33,-0.58 -0.99,-1.19l0.79 -1.22c0.05,-0.06 0.1,-0.07 0.16,-0.02 0.3,0.24 0.53,0.61 0.68,1.09 0.11,0.33 0.16,0.65 0.16,0.95z"/>
   <path class="fil1" d="M47 48.58c0.12,0.04 0.18,0.12 0.18,0.24l-0.11 0.49c0,0.23 0.31,0.35 0.93,0.35l0.02 0.02 0 1.62 -0.05 0.04 -0.17 0c-0.6,0 -1.02,-0.33 -1.26,-0.99l-0.03 0c-0.35,0.41 -0.95,0.72 -1.79,0.91 -0.51,0.08 -1.13,0.14 -1.83,0.17l0 -0.02 -0.03 0.02 -0.02 0 -4.01 -0.02 0 -0.02 0 -1.66 0 -0.03 0.27 0.01 2.3 0.02 1.2 0c1.42,0 2.55,-0.13 3.38,-0.4 0.1,-0.03 0.36,-0.25 0.78,-0.64 0.11,-0.08 0.19,-0.11 0.24,-0.11z"/>
   <path class="fil1" d="M43.54 47.96c0.05,0.04 0.05,0.08 0,0.13l-0.65 0.65c-0.05,0.05 -0.09,0.05 -0.14,0l-0.62 -0.63 -0.62 0.63c-0.04,0.04 -0.09,0.04 -0.14,0l-0.66 -0.64c-0.05,-0.05 -0.04,-0.11 0.02,-0.17l0.6 -0.6c0.06,-0.06 0.11,-0.06 0.17,0l0.6 0.6 0.61 -0.6c0.06,-0.06 0.11,-0.06 0.17,0l0.66 0.63z"/>
  </g>
  <g id="_1384381465136">
   <path class="fil1" d="M64.32 54.08l-0.84 10.2c-0.04,0.5 -0.18,0.75 -0.4,0.75 -0.24,0 -0.39,-0.31 -0.47,-0.95l-1 -8.53 2.37 -1.72c0.11,-0.08 0.19,-0.12 0.25,-0.12 0.08,0 0.11,0.13 0.09,0.37z"/>
   <path class="fil1" d="M61.61 59.98c0,0.58 -0.22,1.24 -0.66,1.97 -0.58,0.97 -1.35,1.72 -2.31,2.24 -0.96,0.53 -2.02,0.79 -3.17,0.79 -1.57,0 -2.63,-0.31 -3.2,-0.92 -0.36,0.61 -0.85,0.92 -1.49,0.92l-0.75 0 0 -2.68 0.49 0c0.5,0 0.87,-0.16 1.1,-0.47 0.11,-0.17 0.22,-0.46 0.33,-0.87 0.08,-0.32 0.19,-0.47 0.33,-0.47 0.1,0 0.26,0.27 0.47,0.84 0.22,0.55 0.47,0.83 0.76,0.83 0.79,-1.05 1.74,-1.95 2.83,-2.71 1.27,-0.88 2.41,-1.32 3.44,-1.32 0.49,0 0.92,0.19 1.29,0.56 0.36,0.37 0.54,0.8 0.54,1.29zm-1.63 1.53c0,-0.35 -0.25,-0.65 -0.76,-0.9 -0.42,-0.2 -0.83,-0.31 -1.23,-0.31 -1.21,0 -2.31,0.66 -3.32,1.97 0.37,0.07 0.91,0.1 1.64,0.1 0.94,0 1.76,-0.06 2.45,-0.19 0.82,-0.15 1.22,-0.37 1.22,-0.67z"/>
   <polygon class="fil1" points="49.07,62.29 50.4,62.29 50.46,62.36 50.47,64.9 50.42,64.97 49.09,64.97 49.04,64.9 49.03,62.36 "/>
   <path class="fil1" d="M49.41 64.97l-0.86 0c-1.55,0 -2.32,-1.25 -2.32,-3.75 0,-1.98 -0.08,-4.08 -0.22,-6.28l1.59 -1.13c0.21,-0.14 0.34,-0.21 0.4,-0.21 0.08,0 0.12,0.15 0.12,0.44l-0.01 7c0,0.84 0.36,1.25 1.06,1.25l0.24 0 0 2.68z"/>
   <path class="fil1" d="M45.93 56.53c0.03,0.06 0.05,0.12 0.05,0.15 0,0.09 -0.1,0.14 -0.29,0.14 -0.12,0 -0.29,-0.02 -0.5,-0.05l0 5.08c0,0.82 -0.21,1.52 -0.62,2.12 -0.47,0.67 -1.1,1.01 -1.88,1.01l-0.63 0 0 -2.68 0.66 0c0.74,0 1.11,-0.27 1.11,-0.81 0,-0.43 -0.09,-1.19 -0.26,-2.28 -0.21,-1.34 -0.47,-2.56 -0.78,-3.63l1.52 -1.64c0.12,-0.13 0.21,-0.19 0.29,-0.19 0.08,0 0.15,0.09 0.24,0.27l1.09 2.51z"/>
   <path class="fil1" d="M40.9 60.57c0.18,0.07 0.27,0.2 0.27,0.39l-0.17 0.77c0,0.38 0.49,0.56 1.48,0.56l0.03 0.04 0 2.56 -0.07 0.07 -0.28 0c-0.95,0 -1.62,-0.53 -2,-1.58l-0.04 0c-0.56,0.66 -1.5,1.14 -2.84,1.44 -0.82,0.14 -1.79,0.23 -2.91,0.28l0 -0.03 -0.04 0.03 -0.03 0 -6.35 -0.03 0 -0.04 0 -2.63 0 -0.04 0.42 0 3.65 0.04 1.89 0c2.27,0 4.06,-0.21 5.37,-0.63 0.15,-0.05 0.56,-0.39 1.23,-1.02 0.17,-0.12 0.3,-0.18 0.39,-0.18z"/>
   <path class="fil1" d="M35.41 59.59c0.07,0.07 0.07,0.14 0,0.21l-1.03 1.03c-0.08,0.08 -0.15,0.08 -0.22,0l-0.98 -0.99 -0.99 0.99c-0.07,0.07 -0.14,0.07 -0.21,0l-1.05 -1.01c-0.08,-0.08 -0.07,-0.17 0.03,-0.27l0.95 -0.96c0.08,-0.09 0.17,-0.09 0.26,0l0.96 0.96 0.97 -0.96c0.08,-0.09 0.17,-0.09 0.26,0l1.05 1z"/>
   <polygon class="fil1" points="26.53,54.45 26.53,56.42 "/>
   <path class="fil1" d="M26.53 56.42l-3.49 1.21c0.17,0.27 0.46,0.76 0.87,1.47 0.43,0.76 0.65,1.49 0.65,2.19 0,1 -0.27,1.83 -0.79,2.51 -0.59,0.78 -1.42,1.17 -2.5,1.17l-0.73 0 0 -2.68 0.28 0c1.63,0 2.45,-0.17 2.45,-0.51 0,-0.24 -0.75,-1.45 -2.24,-3.63 -0.01,-0.02 -0.02,-0.05 -0.02,-0.08 0,-0.14 0.1,-0.5 0.28,-1.06 0.2,-0.57 0.33,-0.87 0.42,-0.9l4.82 -1.66 0 1.97z"/>
   <polygon class="fil1" points="19.61,62.29 20.94,62.29 20.99,62.36 21,64.9 20.96,64.97 19.63,64.97 19.57,64.9 19.56,62.36 "/>
   <path class="fil1" d="M19.95 64.97l-0.86 0c-1.55,0 -2.33,-1.25 -2.33,-3.75 0,-1.98 -0.07,-4.08 -0.21,-6.28l1.59 -1.13c0.2,-0.14 0.33,-0.21 0.4,-0.21 0.08,0 0.12,0.15 0.12,0.44l-0.01 7c0,0.84 0.35,1.25 1.05,1.25l0.25 0 0 2.68z"/>
   <path class="fil1" d="M17.09 55.51c0.09,0.11 0.14,0.2 0.14,0.27 0,0.12 -0.27,0.2 -0.82,0.23 0,0.18 0,0.36 0,0.53 0,1.84 -0.65,3.36 -1.95,4.54 0.29,0.42 0.44,0.95 0.44,1.62 0,1.04 -0.52,1.76 -1.56,2.15 -0.67,0.25 -1.63,0.38 -2.89,0.38 -0.47,0 -0.7,-0.14 -0.7,-0.4 0,-0.08 0.01,-0.15 0.03,-0.23 0.07,-0.23 0.31,-0.94 0.72,-2.13 0.31,-0.07 0.77,-0.25 1.35,-0.55 0.63,-0.31 1.06,-0.58 1.31,-0.82 -1.08,-1.58 -2.17,-2.85 -3.25,-3.8 -0.23,0.45 -0.41,0.68 -0.52,0.68 -0.17,0.02 -0.64,-0.63 -1.41,-1.92 0.18,-0.58 0.39,-1.12 0.63,-1.62 0.2,-0.42 0.36,-0.63 0.49,-0.63 0.08,0 0.21,0.08 0.37,0.24 2.15,2.04 3.68,4.06 4.59,6.04 0.49,-0.64 0.71,-1.52 0.66,-2.63 -0.04,-0.75 -0.21,-1.49 -0.53,-2.23l0.88 -1.34c0.14,-0.21 0.26,-0.32 0.36,-0.32 0.09,0 0.21,0.09 0.35,0.27l1.31 1.67zm-3.13 7.06c0,-0.17 -0.12,-0.43 -0.37,-0.78 -0.32,0.24 -1.05,0.67 -2.21,1.27 0.16,0.02 0.35,0.03 0.56,0.03 1.35,0 2.02,-0.17 2.02,-0.52z"/>
  </g>
 </g>
</svg>
